# xmcd
#
# Track frame offsets:
#	150
#	23221
#	47117
#	68742
#	87305
#	131431
#	154355
#	176807
#	194876
#	217230
#	236845
#
# Disc length: 3514 seconds
#
# Revision: 0
# Processed by: cddbd v1.5.1PL0 Copyright (c) Steve Scherf et al.
# Submitted via: dBpowerAMP V4.0
#
DISCID=aa0db80b
DTITLE=RICK DERRINGER - Back To The Blues
DYEAR=1900
DGENRE=
TTITLE0=Trouble In Paradise
TTITLE1=Blue Suede Blues
TTITLE2=Blues All Night Long
TTITLE3=Meantown Blues
TTITLE4=Sorry For Your Heartache
TTITLE5=Sink Or Swim
TTITLE6=Diamond
TTITLE7=Crybaby
TTITLE8=Unsolved Mystery
TTITLE9=Blue Velvet
TTITLE10=Time To Go
EXTD=
EXTT0=
EXTT1=
EXTT2=
EXTT3=
EXTT4=
EXTT5=
EXTT6=
EXTT7=
EXTT8=
EXTT9=
EXTT10=
PLAYORDER=
